#!OML:ASF C:\ViconDB\ViconDB\414\Spring2016\041811\Spring2016.ASF
:FULLY-SPECIFIED
:DEGREES
451
root 9.71811 18.1063 -33.0814 -179.306 -4.01991 -186.807
lowerback 0.363104 0.520649 -4.90522
upperback 0.377145 0.637463 -1.15659
thorax 0.141881 0.28911 1.55922
lowerneck -13.8192 9.75903 0.520096
upperneck 29.249 11.4668 3.49278
head 11.6169 5.11453 2.66404
rclavicle 5.61567e-015 1.98785e-015
rhumerus -88.7859 33.983 -123.162
rradius 85.2857
rwrist 25.7453
rhand -48.5883 -3.34022
rfingers 7.12502
rthumb -21.2336 -32.1972
lclavicle 5.61567e-015 1.98785e-015
lhumerus -86.8255 -47.7237 118.36
lradius 82.9958
lwrist -28.2373
lhand -39.5346 -2.4455
lfingers 7.12502
lthumb -12.5191 27.1595
rfemur 334.67 -560.993 6.16324
rtibia 57.8263
rfoot -352.828 -78.9327
rtoes -3.97569e-014
lfemur -12.0923 -3.81763 -32.3525
ltibia 29.1011
lfoot -15.5006 -10.1304
ltoes -6.75868e-015
452
root 9.64495 18.0877 -33.2806 -179.143 -3.65324 -187.616
lowerback 0.121961 0.583879 -4.88236
upperback 0.275553 0.725022 -1.38183
thorax 0.170113 0.33037 1.31685
lowerneck -13.6489 9.82874 0.643982
upperneck 29.2957 11.6197 3.17407
head 11.6317 5.14788 2.54273
rclavicle -6.3052e-015 -1.90833e-014
rhumerus -88.4771 33.4388 -122.839
rradius 85.3259
rwrist 26.358
rhand -48.6835 -3.57645
rfingers 7.12502
rthumb -21.325 -32.4231
lclavicle -6.3052e-015 -1.90833e-014
lhumerus -87.3371 -47.8653 118.731
lradius 82.9299
lwrist -27.4339
lhand -39.3599 -2.84505
lfingers 7.12502
lthumb -12.3507 26.7701
rfemur 338.598 -561.018 6.2838
rtibia 55.4642
rfoot -357.965 -76.7906
rtoes -1.01778e-013
lfemur -11.2817 -2.97257 -33.4534
ltibia 28.689
lfoot -16.0523 -10.7207
ltoes -3.94588e-014
453
root 9.5796 18.0652 -33.4675 -178.999 -3.54794 -188.26
lowerback 0.093907 0.562026 -4.78759
upperback 0.133649 0.684441 -1.58042
thorax 0.0456851 0.311584 1.05983
lowerneck -13.4695 9.90157 0.802631
upperneck 29.2617 11.7511 2.93483
head 11.6111 5.19225 2.43827
rclavicle -7.79609e-015 1.19271e-014
rhumerus -88.2888 33.0251 -122.708
rradius 85.4381
rwrist 26.5467
rhand -48.5723 -3.43422
rfingers 7.12502
rthumb -21.2182 -32.2929
lclavicle -7.79609e-015 1.19271e-014
lhumerus -87.9922 -47.9573 119.111
lradius 82.8801
lwrist -27.0386
lhand -39.1087 -3.09708
lfingers 7.12502
lthumb -12.1084 26.5326
rfemur 342.514 -561.228 6.62396
rtibia 53.0056
rfoot -361.163 -74.7438
rtoes 9.54166e-015
lfemur -10.4346 -2.54215 -34.3559
ltibia 28.2188
lfoot -16.656 -10.8316
ltoes -2.3059e-014
454
root 9.52223 18.04 -33.6517 -178.72 -3.66538 -188.771
lowerback -0.107807 0.50485 -4.67625
upperback 0.0236308 0.613335 -1.68056
thorax 0.0518227 0.276087 0.896401
lowerneck -13.3771 9.92425 0.791885
upperneck 29.2237 11.8637 2.69192
head 11.5941 5.21153 2.36128
rclavicle -1.66544e-014 2.78299e-015
rhumerus -87.9472 32.6479 -122.407
rradius 85.554
rwrist 26.634
rhand -48.5267 -3.55878
rfingers 7.12502
rthumb -21.1744 -32.4224
lclavicle -1.66544e-014 2.78299e-015
lhumerus -88.2216 -48.101 119.25
lradius 82.5868
lwrist -27.5517
lhand -39.404 -2.87109
lfingers 7.12502
lthumb -12.3932 26.7415
rfemur 346.624 -561.627 7.18998
rtibia 50.3847
rfoot -364.815 -72.3328
rtoes -2.8625e-014
lfemur -9.8056 -2.05923 -35.0636
ltibia 27.8537
lfoot -16.859 -11.2616
ltoes -8.38871e-014
455
root 9.46618 18.0144 -33.8427 -178.475 -3.63381 -189.144
lowerback -0.413085 0.428556 -4.58811
upperback -0.0388309 0.529214 -1.6764
thorax 0.163963 0.233262 0.853507
lowerneck -13.3103 10.0079 0.825697
upperneck 29.1706 12.0722 2.39667
head 11.5832 5.27383 2.27317
rclavicle 1.0312e-014 7.95139e-015
rhumerus -87.6926 32.3882 -122.083
rradius 85.6652
rwrist 26.9427
rhand -48.4158 -3.35525
rfingers 7.12502
rthumb -21.0679 -32.2308
lclavicle 1.0312e-014 7.95139e-015
lhumerus -88.2012 -48.0379 119.166
lradius 82.3186
lwrist -27.6345
lhand -39.3722 -3.2062
lfingers 7.12502
lthumb -12.3626 26.4083
rfemur 350.751 -562.029 7.99109
rtibia 47.6783
rfoot -367.998 -70.0959
rtoes 1.59028e-014
lfemur -9.17107 -1.46516 -35.6031
ltibia 27.5183
lfoot -17.444 -11.8239
ltoes -4.27387e-014
456
root 9.40435 17.9863 -34.0326 -178.115 -3.48629 -189.44
lowerback -0.883096 0.273836 -4.49448
upperback -0.0896419 0.353257 -1.6005
thorax 0.384246 0.143744 0.880419
lowerneck -13.3471 10.1957 0.978422
upperneck 29.1709 12.465 1.89246
head 11.6397 5.40078 2.12697
rclavicle 1.41945e-014 7.95139e-015
rhumerus -87.5815 32.5381 -122.041
rradius 85.7954
rwrist 26.921
rhand -48.2616 -3.41232
rfingers 7.12502
rthumb -20.9198 -32.3043
lclavicle 1.41945e-014 7.95139e-015
lhumerus -87.8288 -47.7392 118.832
lradius 82.1443
lwrist -27.2319
lhand -39.0345 -3.35794
lfingers 7.12502
lthumb -12.0369 26.2759
rfemur 355.063 -562.724 9.14626
rtibia 44.9205
rfoot -371.139 -67.6218
rtoes -4.45278e-014
lfemur -8.65208 -0.827469 -36.0913
ltibia 27.2074
lfoot -17.7489 -12.9514
ltoes -5.00937e-014
457
root 9.34806 17.9491 -34.2259 -177.649 -3.56345 -190.241
lowerback -1.40387 0.138334 -4.91191
upperback -0.16008 0.200658 -1.64469
thorax 0.609692 0.0599318 1.06731
lowerneck -13.3788 10.297 0.886714
upperneck 29.1188 12.7457 1.5741
head 11.6427 5.47956 2.06638
rclavicle 5.2181e-016 2.94201e-014
rhumerus -87.2421 32.329 -121.607
rradius 85.8481
rwrist 27.1085
rhand -48.1819 -3.44332
rfingers 7.12502
rthumb -20.8432 -32.3437
lclavicle 5.2181e-016 2.94201e-014
lhumerus -87.6074 -47.6182 118.739
lradius 81.9979
lwrist -26.8692
lhand -38.8867 -3.72555
lfingers 7.12502
lthumb -11.8944 25.9166
rfemur 359.409 -563.979 9.96033
rtibia 42.2248
rfoot -374.874 -65.4126
rtoes 7.15625e-015
lfemur -8.17493 -0.438866 -37.0835
ltibia 26.8638
lfoot -17.8693 -13.8365
ltoes -4.00551e-014
